<svg width="27" height="30" viewBox="0 0 27 30" fill="none" xmlns="http://www.w3.org/2000/svg">
<mask id="mask0_173_4954" style="mask-type:luminance" maskUnits="userSpaceOnUse" x="0" y="10" width="16" height="20">
<path d="M0.348999 10.6667H15.6667V29.3333H0.348999V10.6667Z" fill="white"/>
</mask>
<g mask="url(#mask0_173_4954)">
<path d="M1.76044 19.2708H6.13544C6.32294 19.2708 6.50523 19.3646 6.6094 19.526C6.71877 19.6823 6.73961 19.8802 6.66669 20.0573L4.43752 25.5938L12.5938 17.0052H10.0625C9.8594 17.0052 9.6719 16.901 9.56773 16.724C9.46877 16.5521 9.46356 16.3385 9.56252 16.1563L11.7969 12.099H4.53648L1.76044 19.2708ZM2.79169 28.7396C2.59898 28.7396 2.4219 28.6406 2.31773 28.4844C2.20836 28.3281 2.18752 28.125 2.26044 27.9531L5.29169 20.4167H0.921897C0.734397 20.4167 0.557314 20.3229 0.447939 20.1667C0.343771 20.0104 0.31773 19.8125 0.390647 19.6406L3.6094 11.3177C3.69273 11.099 3.90627 10.9531 4.14065 10.9531H12.7656C12.9688 10.9531 13.1563 11.0625 13.2552 11.2344C13.3646 11.4063 13.3646 11.625 13.2656 11.8021L11.0313 15.8646H13.9271C14.1511 15.8646 14.3594 16 14.4531 16.2083C14.5417 16.4167 14.4948 16.6615 14.3386 16.8281L3.20315 28.5573C3.09377 28.6719 2.94273 28.7396 2.79169 28.7396Z" fill="#6C8800"/>
</g>
<mask id="mask1_173_4954" style="mask-type:luminance" maskUnits="userSpaceOnUse" x="6" y="0" width="21" height="30">
<path d="M6.901 0.864563H26.3125V29.6875H6.901V0.864563Z" fill="white"/>
</mask>
<g mask="url(#mask1_173_4954)">
<path d="M16.599 29.6823C14.5521 29.6823 12.5573 29.0573 10.875 27.8906C9.19792 26.7239 7.91147 25.0729 7.20313 23.1562C7.09376 22.8646 7.2448 22.5364 7.53647 22.4271C7.83334 22.3177 8.16147 22.4635 8.27084 22.7552C9.25001 25.3802 11.401 27.3906 14.0885 28.1771C16.7708 28.9687 19.6719 28.4531 21.9167 26.7708C24.1563 25.0937 25.474 22.4583 25.474 19.6614C25.474 19.651 25.474 19.6458 25.474 19.6354C25.4792 19.5989 25.6094 15.4687 22.349 10.125C20.6563 7.38541 18.75 4.78124 16.6406 2.34895L10.4688 10.8854C10.2552 11.1823 10.0573 11.4896 9.87501 11.8125C9.80209 11.9427 9.67709 12.0417 9.53126 12.0833C9.38021 12.125 9.22397 12.1042 9.09376 12.026C8.95834 11.9531 8.85938 11.8281 8.82292 11.6823C8.78126 11.5312 8.8073 11.375 8.88022 11.2448C9.08334 10.8854 9.30209 10.5417 9.54167 10.2135L16.1354 1.09895C16.2344 0.963531 16.3906 0.874989 16.5625 0.864573C16.7344 0.854156 16.901 0.921865 17.0156 1.04687C17.0469 1.08332 20.3021 4.59374 23.3229 9.52603C26.7188 15.0885 26.6302 19.3489 26.6198 19.6771C26.6146 22.3333 25.5573 24.875 23.6771 26.75C21.7969 28.6302 19.2552 29.6823 16.599 29.6875V29.6823Z" fill="#6C8800"/>
</g>
</svg>
