<svg width="39" height="39" viewBox="0 0 39 39" fill="none" xmlns="http://www.w3.org/2000/svg">
<mask id="mask0_175_4957" style="mask-type:luminance" maskUnits="userSpaceOnUse" x="0" y="9" width="12" height="21">
<path d="M0.177124 9.66669H11.3334V29.6667H0.177124V9.66669Z" fill="white"/>
</mask>
<g mask="url(#mask0_175_4957)">
<path d="M8.5 28.2135V23.2344L10.5417 22.2031C10.7344 22.0989 10.8594 21.9062 10.8594 21.6771V17.0781C10.8594 16.401 10.4792 15.7916 9.86979 15.4739L7.71875 14.401C7.76042 14.3333 7.78125 14.2916 7.82292 14.2291C7.86458 14.1458 7.88542 14.0625 7.88542 13.9583V11.5937C7.88542 11.5104 7.86458 11.4062 7.82292 11.3177C7.40104 10.4323 6.51563 9.86456 5.52604 9.80206C4.53125 9.86456 3.66667 10.4323 3.22396 11.3177C3.18229 11.4062 3.16146 11.4896 3.16146 11.5937V13.9791C3.16146 14.0625 3.18229 14.1666 3.22396 14.25C3.24479 14.3125 3.28646 14.3802 3.32812 14.4219L1.17708 15.4739C0.567709 15.7708 0.1875 16.401 0.1875 17.0781V21.6771C0.1875 21.9062 0.3125 22.0989 0.505208 22.2031L2.55208 23.2344V28.2135C2.55208 28.5521 2.82292 28.8073 3.14062 28.8073H7.88542C8.22396 28.8073 8.5 28.5312 8.5 28.2135ZM4.34375 11.7396C4.59375 11.3177 5.03646 11.026 5.52604 10.9844C6.01042 11.026 6.45312 11.2969 6.70312 11.7396V13.8073C6.45312 14.2291 6.01042 14.526 5.52604 14.5677C5.03646 14.5052 4.59375 14.2291 4.34375 13.8073V11.7396ZM3.16146 18.1094C2.82292 18.1094 2.57292 18.3854 2.57292 18.7031V21.8854L1.39062 21.2969V17.0781C1.39062 16.8437 1.51563 16.6354 1.70833 16.5521L4.17188 15.3073C4.97396 15.8958 6.07292 15.8958 6.89583 15.3073L9.36458 16.5521C9.57292 16.6562 9.69792 16.8646 9.67708 17.0781V21.3177L8.5 21.9062V18.7031C8.5 18.3646 8.22396 18.1094 7.90625 18.1094C7.58854 18.1094 7.31771 18.3854 7.31771 18.7031V27.6041H6.13542V22.2656C6.13542 21.9271 5.85938 21.6771 5.54688 21.6771C5.20833 21.6771 4.95312 21.9479 4.95312 22.2656V27.6041H3.77083V18.7031C3.75 18.3854 3.47917 18.1094 3.16146 18.1094Z" fill="#EF8D22"/>
</g>
<mask id="mask1_175_4957" style="mask-type:luminance" maskUnits="userSpaceOnUse" x="14" y="27" width="11" height="12">
<path d="M14 27H24.6667V38.25H14V27Z" fill="white"/>
</mask>
<g mask="url(#mask1_175_4957)">
<path d="M18.75 27.8125C18.3698 28.2344 15.0365 32.0104 15.0365 34.1406C15.0365 36.4427 16.8907 38.2969 19.1927 38.2969C21.4896 38.2969 23.349 36.4427 23.349 34.1406C23.349 32.0104 20.0157 28.2136 19.6355 27.8125C19.4219 27.5625 19.0417 27.5625 18.7917 27.7708C18.7709 27.7708 18.75 27.7917 18.75 27.8125ZM19.1719 37.1146C17.5261 37.1146 16.198 35.7865 16.198 34.1406C16.198 33 17.8646 30.6615 19.1719 29.1198C20.4584 30.6615 22.1459 33.0261 22.1459 34.1406C22.1459 35.7865 20.8177 37.1146 19.1719 37.1146Z" fill="#EF8D22"/>
</g>
<mask id="mask2_175_4957" style="mask-type:luminance" maskUnits="userSpaceOnUse" x="23" y="9" width="16" height="21">
<path d="M23.3333 9.66669H38.1197V29.6667H23.3333V9.66669Z" fill="white"/>
</mask>
<g mask="url(#mask2_175_4957)">
<path d="M36.9323 16.6146C37.3542 16.0208 37.5833 15.3073 37.5833 14.5677C37.5833 12.6042 36 11.0052 34.0417 11.0052C33.9375 11.0052 33.8281 11.0052 33.724 11.026C33.0469 10.2656 32.0781 9.84375 31.0677 9.84375C29.7813 9.84375 28.599 10.5417 27.9688 11.6562C27.8177 11.6354 27.651 11.6146 27.5 11.6146C25.5417 11.6146 23.9375 13.2188 23.9375 15.1771C23.9375 15.8542 24.1458 16.5313 24.526 17.0781C23.2813 19.3958 24.1719 22.2656 26.4688 23.5104C27.5677 24.1042 28.8333 24.2292 30.0312 23.8906C30.1823 23.9323 30.3281 23.9948 30.474 24.0156V28.8281H31.6562V24.0156C32.4375 23.8698 33.1146 23.3854 33.5573 22.7292C33.8906 22.8385 34.25 22.901 34.6094 22.901C36.5729 22.8802 38.1562 21.276 38.1562 19.3125C38.1562 18.2604 37.6875 17.2865 36.9323 16.6146ZM34.6094 21.6771C34.2292 21.6771 33.8698 21.5938 33.5365 21.401C33.2396 21.2552 32.8802 21.3594 32.7344 21.6562C32.7135 21.6771 32.7135 21.6979 32.7135 21.7188C32.5208 22.2031 32.1406 22.5833 31.6562 22.75V20.8333L34.3385 19.2292L33.7448 18.2188L31.6562 19.4635V17.5417H30.474V22.7708L30.3073 22.7083C30.224 22.6667 30.1406 22.6458 30.0521 22.6458C29.9896 22.6458 29.9271 22.6667 29.8646 22.6875C29.4844 22.8125 29.1042 22.8802 28.7031 22.901C26.7448 22.901 25.1406 21.2969 25.1406 19.3333C25.1406 18.6406 25.349 17.9635 25.7292 17.375C25.8802 17.1615 25.8594 16.8646 25.6875 16.6771C25.3281 16.2552 25.1406 15.7292 25.1406 15.1771C25.1406 13.8698 26.1927 12.7969 27.5208 12.7969C27.7344 12.7969 27.9687 12.8385 28.1562 12.901C28.4531 12.9844 28.7656 12.8385 28.875 12.5417C29.3385 11.3177 30.7083 10.7083 31.9323 11.1719C32.375 11.3385 32.7552 11.6354 33.026 12.0156C33.1563 12.2031 33.3854 12.2917 33.6198 12.25C33.7656 12.2292 33.8906 12.2031 34.0417 12.2031C35.349 12.2031 36.4219 13.2604 36.4219 14.5885C36.4219 15.2448 36.151 15.875 35.6667 16.3177C35.4323 16.5521 35.4115 16.9115 35.6458 17.1615C35.6875 17.2031 35.7292 17.2448 35.7917 17.2865C36.9323 17.9427 37.3333 19.375 36.6771 20.5156C36.2344 21.2135 35.4531 21.6771 34.6094 21.6771Z" fill="#EF8D22"/>
</g>
<path d="M19.1718 9.80206C21.1302 9.80206 22.7343 8.1979 22.7343 6.23435C22.7343 4.27602 21.151 2.69269 19.1718 2.69269C17.1875 2.69269 15.6041 4.29685 15.6041 6.25519C15.6041 8.21873 17.2083 9.80206 19.1718 9.80206ZM19.1718 3.87498C20.4791 3.87498 21.552 4.92706 21.552 6.25519C21.552 7.58852 20.5 8.6406 19.1718 8.6406C17.8645 8.6406 16.7864 7.58852 16.7864 6.25519C16.7864 4.92706 17.8645 3.87498 19.1718 3.87498Z" fill="#EF8D22"/>
<mask id="mask3_175_4957" style="mask-type:luminance" maskUnits="userSpaceOnUse" x="18" y="0" width="3" height="2">
<path d="M18 0.307312H20.6667V1.66669H18V0.307312Z" fill="white"/>
</mask>
<g mask="url(#mask3_175_4957)">
<path d="M18.5781 0.307312H19.7604V1.4896H18.5781V0.307312Z" fill="#EF8D22"/>
</g>
<path d="M13.2448 5.64581H14.427V6.8281H13.2448V5.64581Z" fill="#EF8D22"/>
<path d="M14.4271 2.08331H15.6042V3.2604H14.4271V2.08331Z" fill="#EF8D22"/>
<path d="M22.7344 2.08331H23.9167V3.2604H22.7344V2.08331Z" fill="#EF8D22"/>
<path d="M14.4271 9.20831H15.6042V10.3906H14.4271V9.20831Z" fill="#EF8D22"/>
<path d="M22.7344 9.20831H23.9167V10.3906H22.7344V9.20831Z" fill="#EF8D22"/>
<path d="M23.9375 5.64581H25.1198V6.8281H23.9375V5.64581Z" fill="#EF8D22"/>
<path d="M18.5781 11.0052H19.7604V12.1823H18.5781V11.0052Z" fill="#EF8D22"/>
<path d="M7.31769 9.20835C7.48435 9.20835 7.65623 9.12502 7.78123 9.00002C9.17185 7.31252 10.9219 5.94273 12.9062 5.01043C13.2031 4.8646 13.3281 4.52606 13.2031 4.23439C13.0521 3.93752 12.7187 3.81252 12.4219 3.93752C10.2708 4.94793 8.36977 6.40627 6.85415 8.2396C6.6406 8.49481 6.68227 8.87502 6.93748 9.08335C7.04165 9.16668 7.16665 9.20835 7.31769 9.20835Z" fill="#EF8D22"/>
<path d="M14.0677 33.5937C11.9583 32.8125 10.0156 31.651 8.32808 30.1562C8.11975 29.901 7.73954 29.8802 7.48433 30.0937C7.23433 30.3021 7.2135 30.6823 7.42183 30.9375C7.44266 30.9583 7.4635 30.9792 7.48433 31C9.38537 32.875 12.401 34.2031 13.625 34.6875C13.6875 34.7135 13.7708 34.7344 13.8333 34.7344C14.1718 34.7344 14.427 34.4583 14.427 34.1406C14.427 33.8906 14.276 33.6771 14.0677 33.5937Z" fill="#EF8D22"/>
<path d="M29.4636 30.7239C27.9688 32.0104 26.2136 32.9792 24.3177 33.5729C24 33.6771 23.8542 34.0156 23.9583 34.3333C24.0417 34.5625 24.2552 34.7135 24.5052 34.7344C24.5677 34.7344 24.6354 34.7135 24.6979 34.6875C26.7448 34.0573 28.6198 33 30.2448 31.6094C30.4948 31.401 30.5417 31.0417 30.3281 30.7656C30.1198 30.5156 29.7604 30.4739 29.4844 30.6823C29.5052 30.7031 29.4844 30.7239 29.4636 30.7239Z" fill="#EF8D22"/>
<path d="M26.0261 5.58335C27.7344 6.44793 29.2969 7.60939 30.6042 9.02085C30.7084 9.14585 30.875 9.20835 31.0469 9.20835C31.1927 9.20835 31.3386 9.16668 31.4479 9.06251C31.6979 8.85418 31.7188 8.47397 31.4896 8.21876C30.0729 6.69793 28.4115 5.45835 26.5729 4.52605C26.2813 4.38022 25.9219 4.48439 25.7709 4.78126C25.625 5.07814 25.7292 5.4323 26.0261 5.58335Z" fill="#EF8D22"/>
<path d="M19.1719 22.8594C19.5104 22.8594 19.7604 22.5833 19.7604 22.2656V19.9062H22.1458C22.4844 19.9062 22.7344 19.6302 22.7344 19.3125C22.7344 18.9948 22.4635 18.724 22.1458 18.724H19.7812V16.3385C19.7812 16 19.5104 15.75 19.1927 15.75C18.8542 15.75 18.599 16.0208 18.599 16.3385V18.724H16.2188C15.8802 18.724 15.625 18.9948 15.625 19.3125C15.625 19.6302 15.901 19.9062 16.2188 19.9062H18.599V22.2865C18.5781 22.6042 18.8542 22.8594 19.1719 22.8594Z" fill="#EF8D22"/>
</svg>
