<svg width="41" height="42" viewBox="0 0 41 42" fill="none" xmlns="http://www.w3.org/2000/svg">
<mask id="mask0_175_4958" style="mask-type:luminance" maskUnits="userSpaceOnUse" x="0" y="0" width="28" height="32">
<path d="M0.348999 0.067688H27.849V31.7656H0.348999V0.067688Z" fill="white"/>
</mask>
<g mask="url(#mask0_175_4958)">
<path d="M25.6407 3.51044H21.0573V2.85419C21.0573 1.32294 19.8125 0.072937 18.2761 0.072937H9.91671C8.38546 0.072937 7.13546 1.32294 7.13546 2.85419V3.51044H2.55733C1.35421 3.51044 0.380249 4.4844 0.380249 5.68752V6.71877C0.380249 7.83856 1.23442 8.76565 2.32817 8.88023L4.56775 28.5521C4.78129 30.4271 6.36983 31.8438 8.26046 31.8438H19.9323C21.823 31.8438 23.4115 30.4271 23.625 28.5521L25.8646 8.88023C26.9584 8.76565 27.8177 7.83856 27.8177 6.71877V5.68752C27.8177 4.4844 26.8386 3.51044 25.6407 3.51044ZM8.54692 2.85419C8.54692 2.09898 9.1615 1.4844 9.91671 1.4844H18.2761C19.0313 1.4844 19.6459 2.09898 19.6459 2.85419V3.51044H8.54692V2.85419ZM22.224 28.3906C22.0886 29.5521 21.1042 30.4323 19.9323 30.4323H8.26046C7.08858 30.4323 6.10421 29.5521 5.974 28.3906L3.75004 8.89585H24.4427L22.224 28.3906ZM26.4063 6.71877C26.4063 7.14065 26.0625 7.47919 25.6407 7.47919H2.55733C2.13546 7.47919 1.79171 7.14065 1.79171 6.71877V5.68752C1.79171 5.26565 2.13546 4.9219 2.55733 4.9219H25.6407C26.0625 4.9219 26.4011 5.26565 26.4011 5.68752V6.71877H26.4063Z" fill="#5E5E5E"/>
</g>
<path d="M14.099 26.6094C14.4896 26.6094 14.8021 26.2917 14.8021 25.901V13.4219C14.8021 13.0313 14.4896 12.7188 14.099 12.7188C13.7083 12.7188 13.3906 13.0313 13.3906 13.4219V25.901C13.3906 26.2917 13.7083 26.6094 14.099 26.6094Z" fill="#5E5E5E"/>
<path d="M18.3177 26.5782C18.3438 26.5782 18.3646 26.5782 18.3906 26.5782C18.75 26.5782 19.0573 26.3074 19.0885 25.9428L20.3021 13.5209C20.3385 13.1303 20.0521 12.7865 19.6667 12.7501C19.2708 12.7084 18.9323 12.9949 18.8958 13.3855L17.6875 25.8074C17.6458 26.1928 17.9323 26.5365 18.3177 26.5782Z" fill="#5E5E5E"/>
<path d="M9.80733 26.5782C9.82817 26.5782 9.85421 26.5782 9.87504 26.5782C10.2657 26.5417 10.5469 26.1928 10.5105 25.8074L9.30212 13.3855C9.26046 12.9949 8.92192 12.7084 8.52608 12.7501C8.14067 12.7865 7.85421 13.1303 7.89587 13.5209L9.10421 25.9428C9.14067 26.3074 9.44796 26.5782 9.80733 26.5782Z" fill="#5E5E5E"/>
<mask id="mask1_175_4958" style="mask-type:luminance" maskUnits="userSpaceOnUse" x="18" y="13" width="21" height="13">
<path d="M18.3333 13.9011H38.3333V26H18.3333V13.9011Z" fill="white"/>
</mask>
<g mask="url(#mask1_175_4958)">
<path d="M34.0936 24.1771L28.953 23.5729L30.078 22.8542C30.302 22.7187 30.3541 22.4427 30.2447 22.224L26.4791 14.8594H31.2082C32.0051 14.8594 32.7447 15.3281 33.1041 16.0417L34.8905 19.2031C34.9999 19.4219 35.2759 19.5052 35.4947 19.3958L36.6457 18.7917L34.0936 24.1771ZM24.6405 20.8229L20.4113 18.0469L21.5936 16.0417C22.0051 15.3281 22.7707 14.8594 23.5936 14.8594H25.4634L26.5936 17.224L24.6405 20.8229ZM37.828 17.2812C37.6926 17.224 37.552 17.224 37.4166 17.2812L35.4634 18.3229L33.9009 15.5781C33.3749 14.5573 32.3332 13.901 31.2082 13.9271H23.5936C22.4686 13.9271 21.3957 14.5573 20.8228 15.5469L19.3957 17.9375C19.2551 18.1562 19.3384 18.4583 19.5311 18.599L24.5572 21.8958C24.6405 21.9479 24.7238 21.9792 24.8072 21.9792C24.8332 21.9792 24.8905 21.9792 24.9166 21.9479C25.0259 21.9219 25.1353 21.8385 25.1874 21.7292L27.1145 18.1562L29.2291 22.2812L27.3072 23.4583C27.1405 23.5729 27.0572 23.7656 27.0832 23.9531C27.1405 24.1458 27.2759 24.3125 27.4686 24.3125L34.2863 25.1094C34.3124 25.1094 34.3124 25.1094 34.3384 25.1094C34.5051 25.1094 34.6666 25 34.7499 24.8333L38.0207 17.8854C38.1561 17.6927 38.0468 17.4167 37.828 17.2812Z" fill="#5E5E5E"/>
</g>
<mask id="mask2_175_4958" style="mask-type:luminance" maskUnits="userSpaceOnUse" x="24" y="23" width="17" height="19">
<path d="M24.1719 23.8177H40.3802V41.3958H24.1719V23.8177Z" fill="white"/>
</mask>
<g mask="url(#mask2_175_4958)">
<path d="M39.1197 30.0834L38.2968 31.4584H35.1614L33.2135 27.8542L37.9114 25L39.1718 27.6355C39.5885 28.4063 39.5572 29.3386 39.1197 30.0834ZM34.9427 37.3907C34.5885 38.1302 33.8437 38.599 33.0468 38.573H29.3958C29.1458 38.573 28.927 38.7917 28.927 39.0417V39.5313L25.4114 34.8073L28.927 30.7969V31.9532C28.927 32.224 29.1197 32.4167 29.3958 32.4167H37.7447L34.9427 37.3907ZM39.9687 27.198L38.4895 24.1459C38.375 23.9011 38.1041 23.8177 37.8854 23.9271C37.8854 23.9271 37.8541 23.9271 37.8541 23.9532L32.3593 27.2813C32.1406 27.3907 32.0885 27.6667 32.1979 27.8855L34.1197 31.4584H29.8593V29.5625C29.8593 29.2865 29.6666 29.0938 29.3958 29.0938C29.2552 29.0938 29.1458 29.1511 29.0625 29.2605L24.4739 34.4792C24.3385 34.6459 24.3125 34.8907 24.4479 35.0834L29.0364 41.2396C29.2031 41.4584 29.4739 41.4844 29.6666 41.3177C29.7812 41.2396 29.8333 41.099 29.8333 40.9323V39.5052H33.0468C34.177 39.5313 35.2187 38.9011 35.7395 37.8594L38.9531 32.1719L39.9166 30.5782C40.5208 29.5313 40.5468 28.2396 39.9687 27.198Z" fill="#5E5E5E"/>
</g>
<mask id="mask3_175_4958" style="mask-type:luminance" maskUnits="userSpaceOnUse" x="12" y="20" width="13" height="21">
<path d="M12.8802 20.6667H25V40.6667H12.8802V20.6667Z" fill="white"/>
</mask>
<g mask="url(#mask3_175_4958)">
<path d="M21.3438 26.7865C21.125 26.7031 20.9063 26.7865 20.7917 26.9792L16.8386 34.1198L14.6927 30.2761C14.3125 29.5313 14.3125 28.625 14.724 27.8854L16.4271 24.3386C16.5365 24.1198 16.4532 23.8438 16.2605 23.7344L14.8334 22.8281L20.4115 22.474L22.5521 27.2813L21.3438 26.7865ZM22.0573 32.8854V38.5729H20.6823C19.8334 38.5729 19.0365 38.1042 18.625 37.3334L17.3594 35.0834L18.6511 32.8854H22.0573ZM23.8438 27.9375L21.099 21.7865C21.0157 21.6198 20.849 21.5104 20.6563 21.5104L13.349 21.9792C13.099 22.0052 12.9115 22.224 12.9115 22.474C12.9115 22.6354 12.9896 22.7761 13.1302 22.8542L15.3802 24.3125L13.8698 27.4427C13.323 28.4636 13.323 29.724 13.8698 30.7396L16.4271 35.3021L17.8282 37.8021C18.4323 38.8438 19.5052 39.5052 20.6823 39.5052H22.5261C22.7709 39.5052 22.9896 39.2865 22.9896 39.0417V32.3906C22.9896 32.1146 22.8021 31.9219 22.5261 31.9219H19.0886L21.3698 27.8281L23.2657 28.5729C23.5157 28.6563 23.7605 28.5417 23.8698 28.2969C23.9011 28.1875 23.9011 28.0521 23.8438 27.9375Z" fill="#5E5E5E"/>
</g>
</svg>
