<svg width="34" height="37" viewBox="0 0 34 37" fill="none" xmlns="http://www.w3.org/2000/svg">
<mask id="mask0_173_4956" style="mask-type:luminance" maskUnits="userSpaceOnUse" x="0" y="21" width="32" height="6">
<path d="M0.359375 21.6667H32V26.8281H0.359375V21.6667Z" fill="white"/>
</mask>
<g mask="url(#mask0_173_4956)">
<path fill-rule="evenodd" clip-rule="evenodd" d="M0.385376 25.5833C7.17183 20.6041 24.4218 22.7135 31.7812 25.0781C17.9843 22.3594 7.20309 21.9219 1.05204 26.5052L0.385376 25.5833Z" fill="#975713"/>
</g>
<mask id="mask1_173_4956" style="mask-type:luminance" maskUnits="userSpaceOnUse" x="6" y="0" width="9" height="23">
<path d="M6.66663 0.869781H14.6666V23H6.66663V0.869781Z" fill="white"/>
</mask>
<g mask="url(#mask1_173_4956)">
<path fill-rule="evenodd" clip-rule="evenodd" d="M9.93221 22.7604L7.72388 6.47395L13.5103 0.869781L14.5312 22.5469H14.3385L12.0937 3.67707L8.29679 6.78124L10.052 22.75L9.93221 22.7604Z" fill="#975713"/>
</g>
<path fill-rule="evenodd" clip-rule="evenodd" d="M18.8802 10.9427L19 5.21355L15.1875 1.78647L18.1719 5.59897L18.25 11.4011L18.8802 10.9427Z" fill="#975713"/>
<path fill-rule="evenodd" clip-rule="evenodd" d="M21.5261 23.0104L21.6772 17.6771L21.0261 22.9531L21.5261 23.0104ZM17.7397 22.6667L17.4949 11.9531L22.0522 8.60938L21.7865 15.8906L21.1667 10.2396L18.0209 12.1146L17.823 22.6719L17.7397 22.6667Z" fill="#975713"/>
<path fill-rule="evenodd" clip-rule="evenodd" d="M24.677 23.8542L25.828 11.4948L22.052 8.60938L25.2395 11.6615L24.4739 23.8229L24.677 23.8542Z" fill="#975713"/>
<mask id="mask2_173_4956" style="mask-type:luminance" maskUnits="userSpaceOnUse" x="0" y="17" width="34" height="20">
<path d="M0 17.6667H33.3333V36.3334H0V17.6667Z" fill="white"/>
</mask>
<g mask="url(#mask2_173_4956)">
<mask id="mask3_173_4956" style="mask-type:luminance" maskUnits="userSpaceOnUse" x="-4" y="7" width="39" height="40">
<path d="M34.875 24.6042L17.3125 46.3542L-3.6615 29.4167L13.9062 7.66666L34.875 24.6042Z" fill="white"/>
</mask>
<g mask="url(#mask3_173_4956)">
<mask id="mask4_173_4956" style="mask-type:luminance" maskUnits="userSpaceOnUse" x="-4" y="7" width="39" height="40">
<path d="M17.1719 46.526L34.7396 24.776L13.7708 7.83853L-3.79688 29.5833L17.1719 46.526Z" fill="white"/>
</mask>
<g mask="url(#mask4_173_4956)">
<path d="M11.3334 35.9323C3.68233 35.625 0.599 30.276 0.130249 26.5729C4.69796 26.5208 7.59379 24.7969 12.9219 24.3958C19.6771 23.8802 19.5469 26.3802 28.0625 25.1719C20.323 25.75 18.6563 22.8125 11.8073 22.974C7.07296 23.0885 4.84379 24.7552 0.427124 25.0156C1.48963 23.2708 4.93233 18.5885 11.2917 18.5208C19.4636 18.4375 23.1407 23.3021 27.2709 23.5469C30.5209 23.7344 32.0157 22.2865 32.0157 22.2865C32.0157 22.2865 25.2709 36.5 11.3334 35.9323Z" fill="#975713"/>
</g>
</g>
</g>
</svg>
