<svg width="41" height="35" viewBox="0 0 41 35" fill="none" xmlns="http://www.w3.org/2000/svg">
<mask id="mask0_16_6090" style="mask-type:luminance" maskUnits="userSpaceOnUse" x="0" y="0" width="41" height="35">
<path d="M0.177124 0.333313H40.1146V34.2812H0.177124V0.333313Z" fill="white"/>
</mask>
<g mask="url(#mask0_16_6090)">
<path d="M20.1355 0.333313C19.6355 0.333313 19.1824 0.541646 18.8542 0.869771L15.8438 3.49998C17.1615 4.31769 18.2813 5.45831 19.0417 6.83852C21.8803 8.40102 23.7449 11.4375 23.7449 14.7552C23.7449 15.2969 23.698 15.8385 23.599 16.3698C24.849 17.9375 25.547 19.8958 25.547 21.9635C25.547 26.9375 21.5001 30.9791 16.5313 30.9791V32.7812C16.5313 34.5833 18.3334 34.5833 18.3334 34.5833H32.7553C33.7501 34.5833 34.5574 33.776 34.5574 32.7812V18.3594H39.0678C39.5626 18.3594 39.9688 17.9583 39.9688 17.4583C39.9688 17.1614 39.8178 16.9114 39.599 16.75V16.7344L21.422 0.869771C21.0938 0.541646 20.6407 0.333313 20.1355 0.333313ZM11.1251 5.73956C8.68758 5.73956 6.62508 7.35935 5.948 9.5781C3.72925 10.2552 2.10946 12.3177 2.10946 14.7552C2.10946 15.7187 2.36467 16.625 2.80737 17.4114C1.30737 18.375 0.307373 20.0521 0.307373 21.9635C0.307373 24.9479 2.73446 27.375 5.71883 27.375H9.323V32.7812C9.31779 33.0208 9.35946 33.2552 9.45321 33.4791C9.54175 33.7031 9.67196 33.901 9.83862 34.0729C10.0105 34.2448 10.2084 34.375 10.4272 34.4687C10.6511 34.5625 10.8855 34.6094 11.1251 34.6094C11.3647 34.6094 11.599 34.5625 11.823 34.4687C12.0417 34.375 12.2397 34.2448 12.4063 34.0729C12.5782 33.901 12.7084 33.7031 12.797 33.4791C12.8855 33.2552 12.9324 33.0208 12.9272 32.7812V27.375H16.5313C19.5157 27.375 21.9428 24.9479 21.9428 21.9635C21.9428 20.0521 20.9428 18.375 19.4428 17.4114C19.8803 16.625 20.1355 15.7187 20.1355 14.7552C20.1355 12.3177 18.5209 10.2552 16.3022 9.5781C15.6251 7.35935 13.5626 5.73956 11.1251 5.73956Z" fill="#FCC438"/>
</g>
</svg>
