<svg width="35" height="32" viewBox="0 0 35 32" fill="none" xmlns="http://www.w3.org/2000/svg">
<mask id="mask0_173_4955" style="mask-type:luminance" maskUnits="userSpaceOnUse" x="3" y="15" width="28" height="17">
<path d="M3.66663 15H30.3333V31.4688H3.66663V15Z" fill="white"/>
</mask>
<g mask="url(#mask0_173_4955)">
<path d="M29.2343 31.5677H4.89579C4.526 31.5677 4.22913 31.2656 4.22913 30.901V15.7292C4.22913 15.3646 4.526 15.0625 4.89579 15.0625C5.26558 15.0625 5.56246 15.3646 5.56246 15.7292V30.2344H28.5677V15.7292C28.5677 15.3646 28.8698 15.0625 29.2343 15.0625C29.6041 15.0625 29.901 15.3646 29.901 15.7292V30.901C29.901 31.2656 29.6041 31.5677 29.2343 31.5677Z" fill="#C92D39"/>
</g>
<mask id="mask1_173_4955" style="mask-type:luminance" maskUnits="userSpaceOnUse" x="0" y="0" width="35" height="15">
<path d="M0.291626 0.515625H34.2395V15H0.291626V0.515625Z" fill="white"/>
</mask>
<g mask="url(#mask1_173_4955)">
<path d="M33.052 14.3125C32.9114 14.3125 32.7656 14.2656 32.6458 14.1719L17.0677 2.07814L1.48433 14.1719C1.19266 14.3958 0.775994 14.3438 0.552036 14.0521C0.328078 13.7604 0.38016 13.3438 0.666619 13.1198L16.6562 0.708344C16.8958 0.520844 17.2343 0.520844 17.4739 0.708344L33.4635 13.1198C33.7552 13.3438 33.8072 13.7604 33.5781 14.0521C33.4479 14.224 33.25 14.3125 33.052 14.3125Z" fill="#C92D39"/>
</g>
<mask id="mask2_173_4955" style="mask-type:luminance" maskUnits="userSpaceOnUse" x="6" y="14" width="19" height="18">
<path d="M6.974 14.3698H24.948V31.3437H6.974V14.3698Z" fill="white"/>
</mask>
<g mask="url(#mask2_173_4955)">
<path d="M24.2813 15.4635C24.1876 15.4219 21.8803 14.4219 19.7605 15.4739C17.9949 16.3489 15.7397 18.776 16.4636 21.2239C16.2293 21.7187 16.0574 22.2344 15.9376 22.7708C15.7345 22.0312 14.7501 18.9479 12.1668 17.7969C9.21884 16.4896 7.23967 18.1614 7.16155 18.2344C7.02613 18.3489 6.97405 18.526 7.01571 18.6979C7.03134 18.7552 8.4428 24.0364 14.0938 24.0364C14.4324 24.0364 14.7865 24.0208 15.1563 23.9791C15.172 23.9791 15.1824 23.9739 15.1928 23.9739C15.4063 24.3437 15.5678 24.7344 15.6511 25.1458C15.3959 28.3854 15.547 31.0573 15.547 31.0885C15.5626 31.3333 15.7657 31.526 16.0105 31.526C16.0209 31.526 16.0313 31.526 16.0418 31.526C16.297 31.5104 16.4897 31.2864 16.474 31.0312C16.474 30.9948 16.2761 27.4635 16.7345 23.625C16.8022 23.0885 16.9272 22.5781 17.1199 22.0833C17.1303 22.0833 17.1407 22.0885 17.1563 22.0885C17.172 22.0885 17.1824 22.0885 17.198 22.0885C17.2709 22.0833 24.7605 21.4531 24.5678 15.8646C24.5626 15.6875 24.4532 15.526 24.2918 15.4583L24.2813 15.4635ZM8.01051 18.7708C8.54176 18.4375 9.92196 17.8177 11.7918 18.6458C13.2449 19.2916 14.1251 20.7291 14.599 21.8125C13.1043 20.4166 11.3074 19.5989 11.1876 19.5416C10.9532 19.4375 10.6772 19.5416 10.573 19.7812C10.4688 20.0156 10.573 20.2864 10.8074 20.3958C10.8386 20.4114 13.1147 21.4427 14.5522 23.0989C9.96363 23.3437 8.3803 19.8437 8.01051 18.7708ZM17.5782 21.1146C18.3178 19.8489 19.5157 18.7239 21.198 17.7239C21.4168 17.5937 21.4897 17.3073 21.3595 17.0833C21.2293 16.8646 20.9376 16.7916 20.7188 16.9219C19.2345 17.8073 18.0938 18.7864 17.2813 19.875C17.5105 18.2656 19.1251 16.8229 20.1772 16.3021C20.7501 16.0208 21.349 15.9271 21.9011 15.9271C22.6407 15.9271 23.2813 16.0937 23.6303 16.2083C23.5261 19.9739 19.0522 20.9062 17.5782 21.1094V21.1146Z" fill="#C92D39"/>
</g>
</svg>
